<?xml version="1.0" encoding="utf-8"?>
<!-- Generator: Adobe Illustrator 24.0.2, SVG Export Plug-In . SVG Version: 6.00 Build 0)  -->
<svg version="1.1" id="Icons" xmlns="http://www.w3.org/2000/svg" xmlns:xlink="http://www.w3.org/1999/xlink" x="0px" y="0px"
	 viewBox="0 0 512 512" style="enable-background:new 0 0 512 512;" xml:space="preserve">
<style type="text/css">
	.st0{fill:#BDC3C7;}
</style>
<path class="st0" d="M179.2,449.7H41.5c-15.3,0-27.7-12.4-27.7-27.7V200.6c0-15.3,12.4-27.7,27.7-27.7h137.7c3.8,0,6.9,3.1,6.9,6.9
	s-3.1,6.9-6.9,6.9H41.5c-7.6,0-13.8,6.2-13.8,13.8v221.4c0,7.6,6.2,13.8,13.8,13.8h137.7c3.8,0,6.9,3.1,6.9,6.9
	S183,449.7,179.2,449.7z"/>
<path class="st0" d="M470.5,449.7H332.8c-3.8,0-6.9-3.1-6.9-6.9s3.1-6.9,6.9-6.9h137.7c7.6,0,13.8-6.2,13.8-13.8V200.6
	c0-7.6-6.2-13.8-13.8-13.8H332.8c-3.8,0-6.9-3.1-6.9-6.9s3.1-6.9,6.9-6.9h137.7c15.3,0,27.7,12.4,27.7,27.7v221.4
	C498.2,437.3,485.8,449.7,470.5,449.7z"/>
<path class="st0" d="M256,470.5c-87.9,0-159.1-71.2-159.1-159.1S168.1,152.2,256,152.2s159.1,71.2,159.1,159.1
	C415,399.2,343.8,470.4,256,470.5z M256,166.1c-80.2,0-145.3,65.1-145.3,145.3S175.8,456.6,256,456.6s145.3-65.1,145.3-145.3
	C401.2,231.1,336.2,166.1,256,166.1z"/>
<path class="st0" d="M253.9,426L253.9,426c-7.8-0.1-15.6-1-23.1-2.8c-3.7-0.9-6-4.6-5.1-8.3c0.9-3.7,4.5-6,8.2-5.2
	c6.6,1.5,13.3,2.3,20.1,2.4c3.8,0,6.9,3.1,6.9,7C260.9,422.9,257.7,426,253.9,426L253.9,426z"/>
<path class="st0" d="M300.8,416.2c-3.8,0-6.9-3.1-6.9-6.9c0-2.7,1.6-5.2,4.1-6.3c50.7-23.2,72.9-83,49.8-133.6
	c-23.2-50.7-83-72.9-133.6-49.8c-35.9,16.4-58.9,52.3-58.9,91.8c0,6.3,0.6,12.5,1.8,18.7c0.1,0.5,0.1,0.9,0.1,1.4c0,3.8-3,6.9-6.9,7
	c-3.5,0-6.4-2.5-6.9-6c-1.3-6.9-2-14-2-21c0-63.4,51.3-114.8,114.6-114.8S370.8,248,370.8,311.3c0,45-26.2,85.8-67.1,104.4
	C302.7,416,301.8,416.2,300.8,416.2z"/>
<path class="st0" d="M188.7,402.4c-1.6,0-3.1-0.5-4.3-1.5c-5.9-4.7-11.3-10-16.2-15.8c-2.5-2.9-2.1-7.3,0.8-9.8
	c2.9-2.5,7.3-2.1,9.8,0.8c0,0,0,0.1,0.1,0.1c4.3,5.1,9,9.8,14.2,13.9c3,2.4,3.5,6.7,1.1,9.7C192.8,401.5,190.8,402.4,188.7,402.4
	L188.7,402.4z"/>
<path class="st0" d="M279.7,242.4c-0.7,0-1.3-0.1-2-0.3c-1.8-0.5-3.7-1-5.5-1.4c-3.7-0.9-6.1-4.6-5.2-8.3c0.8-3.6,4.3-5.9,8-5.3
	c2.3,0.5,4.5,1.1,6.7,1.7c3.7,1.1,5.8,4.9,4.7,8.6C285.5,240.4,282.8,242.4,279.7,242.4L279.7,242.4z"/>
<path class="st0" d="M331,325.2c-0.4,0-0.8,0-1.2-0.1c-3.8-0.7-6.3-4.2-5.6-8l0,0c3.7-21.4-3.3-43.3-18.7-58.6
	c-2.7-2.7-2.7-7.1,0-9.8s7.1-2.7,9.8,0c18.6,18.5,27.1,44.9,22.6,70.8C337.3,322.8,334.4,325.2,331,325.2z"/>
<path class="st0" d="M118.7,252.5H20.8c-3.8,0-6.9-3.1-6.9-6.9s3.1-6.9,6.9-6.9h97.9c3.8,0,6.9,3.1,6.9,6.9S122.5,252.5,118.7,252.5
	z"/>
<path class="st0" d="M118.7,384H20.8c-3.8,0-6.9-3.1-6.9-6.9s3.1-6.9,6.9-6.9h97.9c3.8,0,6.9,3.1,6.9,6.9S122.5,384,118.7,384z"/>
<path class="st0" d="M491.2,384h-97.9c-3.8,0-6.9-3.1-6.9-6.9s3.1-6.9,6.9-6.9h97.9c3.8,0,6.9,3.1,6.9,6.9
	C498.2,380.9,495.1,384,491.2,384z"/>
<path class="st0" d="M491.2,252.5h-97.9c-3.8,0-6.9-3.1-6.9-6.9s3.1-6.9,6.9-6.9h97.9c3.8,0,6.9,3.1,6.9,6.9
	S495.1,252.5,491.2,252.5z"/>
<path class="st0" d="M297.5,171.8c-3.8,0-6.9-3.1-6.9-6.9v-33.4h-69.2v33.4c0,3.8-3.1,6.9-6.9,6.9s-6.9-3.1-6.9-6.9v-40.3
	c0-3.8,3.1-6.9,6.9-6.9h83c3.8,0,6.9,3.1,6.9,6.9v40.3C304.4,168.7,301.3,171.8,297.5,171.8z"/>
<path class="st0" d="M332.1,131.5H179.9c-7.6,0-13.8-6.2-13.8-13.8V62.3c0-7.6,6.2-13.8,13.8-13.8h152.2c7.6,0,13.8,6.2,13.8,13.8
	v55.4C345.9,125.3,339.8,131.5,332.1,131.5z M179.9,62.3v55.4h152.2V62.3H179.9z"/>
<path class="st0" d="M442.8,186.8h-53.6c-3.8,0-6.9-3.1-6.9-6.9v-31.5c0-8.1,6.6-14.6,14.6-14.6h38.2c8.1,0,14.6,6.6,14.6,14.6v31.5
	C449.7,183.7,446.6,186.8,442.8,186.8z M396.1,173h39.8v-24.6c0-0.4-0.4-0.8-0.8-0.8h-38.2c-0.4,0-0.8,0.4-0.8,0.8V173z"/>
</svg>
