<?xml version="1.0" encoding="utf-8"?>
<!-- Generator: Adobe Illustrator 24.0.2, SVG Export Plug-In . SVG Version: 6.00 Build 0)  -->
<svg version="1.1" id="Warstwa_1" xmlns="http://www.w3.org/2000/svg" xmlns:xlink="http://www.w3.org/1999/xlink" x="0px" y="0px"
	 viewBox="0 0 512 512" style="enable-background:new 0 0 512 512;" xml:space="preserve">
<style type="text/css">
	.st0{fill:#FFFFFF;}
</style>
<g id="_x30_38---Cheetah">
	<path id="Shape" class="st0" d="M230.4,187.7h-17.1c-4.7,0-8.5,3.8-8.5,8.5s3.8,8.5,8.5,8.5h17.1c4.7,0,8.5-3.8,8.5-8.5
		S235.1,187.7,230.4,187.7z"/>
	<path id="Shape_1_" class="st0" d="M198.8,74.3c3.3,3.2,8.7,3.2,12-0.1c3.3-3.3,3.3-8.6,0.1-12l-8.5-8.5c-3.3-3.2-8.7-3.2-12,0.1
		c-3.3,3.3-3.3,8.6-0.1,12L198.8,74.3z"/>
	<path id="Shape_2_" class="st0" d="M245,74.3l8.5-8.5c2.2-2.1,3.1-5.3,2.3-8.3c-0.8-3-3.1-5.3-6.1-6.1s-6.2,0.1-8.3,2.3l-8.5,8.5
		c-3.2,3.3-3.2,8.7,0.1,12C236.3,77.5,241.6,77.5,245,74.3L245,74.3z"/>
	<path id="Shape_3_" class="st0" d="M287.6,82.8l8.5-8.5c2.2-2.1,3.1-5.3,2.3-8.3c-0.8-3-3.1-5.3-6.1-6.1c-3-0.8-6.2,0.1-8.3,2.3
		l-8.5,8.5c-3.2,3.3-3.2,8.7,0.1,12C279,86,284.3,86.1,287.6,82.8L287.6,82.8z"/>
	<path id="Shape_4_" class="st0" d="M156.1,82.8c3.3,3.2,8.7,3.2,12-0.1c3.3-3.3,3.3-8.6,0.1-12l-8.5-8.5c-2.1-2.2-5.3-3.1-8.3-2.3
		c-3,0.8-5.3,3.1-6.1,6.1c-0.8,3,0.1,6.2,2.3,8.3L156.1,82.8z"/>
	<path id="Shape_5_" class="st0" d="M213.3,102.4c0,4.7,3.8,8.5,8.5,8.5c4.7,0,8.5-3.8,8.5-8.5v-8.5c0-4.7-3.8-8.5-8.5-8.5
		c-4.7,0-8.5,3.8-8.5,8.5V102.4z"/>
	<path id="Shape_6_" class="st0" d="M210.8,313.2c3.3-3.3,3.3-8.7,0-12.1l-8.5-8.5c-3.3-3.2-8.7-3.2-12,0.1s-3.3,8.6-0.1,12l8.5,8.5
		C202.1,316.6,207.5,316.6,210.8,313.2L210.8,313.2z"/>
	<path id="Shape_7_" class="st0" d="M159.6,267c-3.3-3.2-8.7-3.2-12,0.1c-3.3,3.3-3.3,8.6-0.1,12l8.5,8.5c3.3,3.2,8.7,3.2,12-0.1
		c3.3-3.3,3.3-8.6,0.1-12L159.6,267z"/>
	<path id="Shape_8_" class="st0" d="M151.1,301.2c-3.3-3.2-8.7-3.2-12,0.1s-3.3,8.6-0.1,12l8.5,8.5c3.3,3.2,8.7,3.2,12-0.1
		c3.3-3.3,3.3-8.6,0.1-12L151.1,301.2z"/>
	<path id="Shape_9_" class="st0" d="M287.6,287.6l8.5-8.5c3.2-3.3,3.2-8.7-0.1-12c-3.3-3.3-8.6-3.3-12-0.1l-8.5,8.5
		c-3.2,3.3-3.2,8.7,0.1,12C279,290.8,284.3,290.9,287.6,287.6L287.6,287.6z"/>
	<path id="Shape_10_" class="st0" d="M292.6,301.2l-8.5,8.5c-3.2,3.3-3.2,8.7,0.1,12c3.3,3.3,8.6,3.3,12,0.1l8.5-8.5
		c3.2-3.3,3.2-8.7-0.1-12C301.3,298,296,297.9,292.6,301.2z"/>
	<path id="Shape_11_" class="st0" d="M241.4,292.6l-8.5,8.5c-3.2,3.3-3.2,8.7,0.1,12c3.3,3.3,8.6,3.3,12,0.1l8.5-8.5
		c3.2-3.3,3.2-8.7-0.1-12C250.1,289.4,244.8,289.4,241.4,292.6z"/>
	<path id="Shape_12_" class="st0" d="M213.3,341.3c0,4.7,3.8,8.5,8.5,8.5c4.7,0,8.5-3.8,8.5-8.5v-8.5c0-4.7-3.8-8.5-8.5-8.5
		c-4.7,0-8.5,3.8-8.5,8.5V341.3z"/>
	<path id="Shape_13_" class="st0" d="M221.9,375.5c0-4.7-3.8-8.5-8.5-8.5s-8.5,3.8-8.5,8.5v8.5c0,4.7,3.8,8.5,8.5,8.5
		s8.5-3.8,8.5-8.5V375.5z"/>
	<path id="Shape_14_" class="st0" d="M298.7,366.9c-4.7,0-8.5,3.8-8.5,8.5v8.5c0,4.7,3.8,8.5,8.5,8.5s8.5-3.8,8.5-8.5v-8.5
		C307.2,370.8,303.4,366.9,298.7,366.9z"/>
	<path id="Shape_15_" class="st0" d="M145.1,366.9c-4.7,0-8.5,3.8-8.5,8.5v8.5c0,4.7,3.8,8.5,8.5,8.5c4.7,0,8.5-3.8,8.5-8.5v-8.5
		C153.6,370.8,149.8,366.9,145.1,366.9z"/>
	<path id="Shape_16_" class="st0" d="M230.4,401.1c-4.7,0-8.5,3.8-8.5,8.5v8.5c0,4.7,3.8,8.5,8.5,8.5s8.5-3.8,8.5-8.5v-8.5
		C238.9,404.9,235.1,401.1,230.4,401.1z"/>
	<path id="Shape_17_" class="st0" d="M452.3,256h-23.3c-21,0.1-40.4,11.1-51.2,29l-5.7,9.5c-1.6,2.6-4.3,4.1-7.3,4.1h-23.4v-8.6
		c0-24-14.4-47.3-26.5-62.8c-4.9-6.1-7.6-13.6-7.6-21.4v-15.7c16.5-19.9,25.6-45,25.6-70.8c0-9.2-1.2-18.4-3.5-27.4
		c20.4-23.7,21.2-60,20.4-75.9c-0.2-4.8-2.5-9.3-6.2-12.3c-3.6-3-8.3-4.4-13-3.7c-19.6,2.6-38.1,10.6-53.5,23.1
		c-34.2-19.7-76.2-19.7-110.4,0c-15.3-12.5-33.8-20.5-53.5-23.1c-4.7-0.6-9.4,0.7-13,3.7c-3.7,3.1-5.9,7.5-6.2,12.3
		c-0.8,15.9,0,52.2,20.4,75.9c-8.8,34.4-0.6,70.9,22.1,98.2V206c-0.1,7.8-2.8,15.4-7.7,21.4c-12.1,15.4-26.5,38.7-26.5,62.7v76.8
		h-8.5c-18.9,0-34.1,15.3-34.1,34.1v26.7c-15.7,4.1-26.3,18.6-25.5,34.8c1.3,18.5,16.9,32.8,35.5,32.4h20.4
		c6,10.5,17.2,17,29.4,17.1c4.4,0,8.7-0.9,12.8-2.5c8.2,3.3,17.4,3.3,25.6,0c9.1,3.7,19.3,3.3,28.1-1.2c8.8-4.4,15.2-12.4,17.6-21.9
		h36.6c2.4,9.5,8.8,17.5,17.6,21.9c8.8,4.4,19,4.9,28.1,1.2c8.2,3.3,17.4,3.3,25.6,0c4.1,1.6,8.4,2.5,12.8,2.5
		c12.1,0,23.3-6.5,29.4-17.1h20.4c18.6,0.4,34.2-13.8,35.5-32.4c0.9-16.1-9.9-30.6-25.6-34.3v-27.2c0-18.9-15.3-34.1-34.1-34.1h-8.5
		v-17.1h23.3c21-0.1,40.4-11.1,51.2-29l5.7-9.5c1.6-2.6,4.3-4.1,7.3-4.1h23.3c14.1,0,25.6-11.5,25.6-25.6
		C477.9,267.5,466.4,256,452.3,256L452.3,256z M129.6,102.2c2.3-0.2,4.3-1.3,5.7-3.1c2.9-3.7,2.1-9.1-1.6-11.9
		c-22.8-17.5-23.4-54.8-22.9-70c21.8,2.5,41.8,13.4,55.7,30.4c1.8,2.7,4.9,4.2,8.1,3.8c3.2-0.3,5.9-2.5,7.1-5.5s0.5-6.4-1.7-8.8
		c-0.3-0.4-0.7-0.7-1-1.1c10.7-5.5,22.3-8.9,34.3-9.9v8.1c0,4.7,3.8,8.5,8.5,8.5c4.7,0,8.5-3.8,8.5-8.5V26
		c11.9,1.1,23.6,4.4,34.2,9.9c-0.3,0.4-0.7,0.7-1,1.1c-2,2.4-2.5,5.7-1.3,8.6c1.2,2.9,3.8,4.9,6.9,5.3c3.1,0.4,6.1-1,8-3.5
		c13.8-17,33.7-27.9,55.4-30.4c0.7,14.2,0.2,47.4-18.2,66.1c-0.1,0.1-0.2,0.2-0.2,0.3c-1.3,1.3-2.7,2.5-4.2,3.7
		c-3.7,2.9-4.4,8.2-1.6,11.9c1.4,1.8,3.5,2.9,5.7,3.1c6.5,33.9-6.3,68.6-33.3,90.2c-1.5-7.4-5.2-14.2-10.5-19.5
		c-8-8.1-13-18.8-13.8-30.2c3.9,1.6,8.1,2.4,12.4,2.4c15.3,1.1,28.6-10.3,29.9-25.6c-1.3-15.3-14.6-26.7-29.9-25.6
		c-15.3-1.1-28.6,10.3-29.9,25.6v19c0,17.5,6.9,34.2,19.3,46.5c6.2,6.2,8,15.5,4.7,23.6c-3.3,8.1-11.2,13.4-20,13.4h-42.1
		c-8.8,0-16.6-5.3-20-13.4c-3.3-8.1-1.5-17.4,4.7-23.6c12.4-12.3,19.3-29,19.3-46.5v-19c-1.3-15.3-14.6-26.7-29.9-25.6
		c-15.3-1.1-28.6,10.3-29.9,25.6c1.3,15.3,14.6,26.7,29.9,25.6c4.2,0,8.4-0.8,12.4-2.4c-0.9,11.4-5.8,22.1-13.8,30.2
		c-5.3,5.3-9,12.1-10.5,19.5C136,170.8,123.2,136.1,129.6,102.2L129.6,102.2z M256,119.5c0-4.5,6-8.5,12.8-8.5s12.8,4,12.8,8.5
		c0,4.5-6,8.5-12.8,8.5S256,124,256,119.5z M204.8,238.9h34.1v8.5c0,4.7-3.8,8.5-8.5,8.5h-17.1c-4.7,0-8.5-3.8-8.5-8.5V238.9z
		 M174.9,128c-6.8,0-12.8-4-12.8-8.5c0-4.5,6-8.5,12.8-8.5s12.8,4,12.8,8.5C187.7,124,181.8,128,174.9,128z M69.7,477.9
		c-9.4,0.3-17.5-6.8-18.5-16.2c-0.4-8.1,4.9-15.4,12.8-17.4c7.4-1.8,12.7-8.4,12.8-16.1v-27.2c0-9.4,7.6-17.1,17.1-17.1h8.5v64.5
		c-10.5,6-17,17.2-17.1,29.4H69.7z M324.3,494.9c-3,0-6-0.8-8.6-2.3c-2.6-1.5-5.8-1.5-8.4,0c-5.3,3.1-11.9,3.1-17.2,0
		c-2.6-1.5-5.8-1.5-8.4,0c-6.2,3.6-14,2.9-19.5-1.7c-5.5-4.6-7.5-12.2-5.1-18.9c2.4-6.7,8.8-11.2,16-11.3c4.7,0,8.5-3.8,8.5-8.5
		s-3.8-8.5-8.5-8.5V341.3c0-4.7-3.8-8.5-8.5-8.5s-8.5,3.8-8.5,8.5v107.1c-7.8,4.6-13.6,12.1-15.9,20.9h-36.6
		c-2.3-8.8-8-16.3-15.9-20.9V341.3c0-4.7-3.8-8.5-8.5-8.5c-4.7,0-8.5,3.8-8.5,8.5v102.4c-4.7,0-8.5,3.8-8.5,8.5s3.8,8.5,8.5,8.5
		c7.2,0,13.6,4.5,16,11.3c2.4,6.7,0.4,14.3-5.1,18.9c-5.5,4.6-13.3,5.3-19.5,1.7c-2.6-1.5-5.8-1.5-8.4,0c-5.3,3.1-11.9,3.1-17.2,0
		c-2.6-1.5-5.8-1.5-8.4,0c-6.2,3.6-14,2.9-19.5-1.7c-5.5-4.6-7.5-12.2-5.1-18.9c2.4-6.7,8.8-11.2,16-11.3c4.7,0,8.5-3.8,8.5-8.5
		s-3.8-8.5-8.5-8.5V290.1c0-20.1,14.3-41.3,22.8-52.1c7.1-8.9,11-19.9,11.3-31.2c3.6,2.9,7.5,5.5,11.5,7.9
		c4.1,10.2,12.4,18.1,22.7,21.8v11c0,14.1,11.5,25.6,25.6,25.6h17.1c14.1,0,25.6-11.5,25.6-25.6v-11c10.3-3.7,18.6-11.7,22.7-21.8
		c4-2.4,7.8-5,11.5-7.9c0.2,11.3,4.2,22.3,11.2,31.2c8.5,10.8,22.8,32,22.8,52.2v153.6c-4.7,0-8.5,3.8-8.5,8.5s3.8,8.5,8.5,8.5
		c9.4,0,17.1,7.6,17.1,17.1C341.3,487.3,333.7,494.9,324.3,494.9z M349.9,384c9.4,0,17.1,7.6,17.1,17.1v27.2
		c0.1,7.7,5.4,14.3,12.8,16.1c7.8,2.1,13.2,9.3,12.8,17.4c-1,9.4-9,16.4-18.5,16.2h-15.7c0-12.1-6.5-23.3-17.1-29.4V384H349.9z
		 M452.3,290.1h-23.3c-9,0-17.3,4.7-22,12.4l-5.7,9.5c-7.7,12.8-21.6,20.7-36.6,20.7h-23.3v-17.1h23.3c9,0,17.3-4.7,22-12.4l5.7-9.5
		c7.7-12.8,21.6-20.7,36.6-20.7h23.3c4.7,0,8.5,3.8,8.5,8.5S457,290.1,452.3,290.1L452.3,290.1z"/>
</g>
</svg>
