<?xml version="1.0" encoding="utf-8"?>
<!-- Generator: Adobe Illustrator 24.0.2, SVG Export Plug-In . SVG Version: 6.00 Build 0)  -->
<svg version="1.1" id="Layer_1" xmlns="http://www.w3.org/2000/svg" xmlns:xlink="http://www.w3.org/1999/xlink" x="0px" y="0px"
	 viewBox="0 0 512 512" style="enable-background:new 0 0 512 512;" xml:space="preserve">
<style type="text/css">
	.st0{fill:#FFFFFF;}
</style>
<g>
	<g>
		<path class="st0" d="M504.5,295.7c4.1,0,7.5-3.4,7.5-7.5v-34.6c0-13-10.5-23.5-23.5-23.5S465,240.7,465,253.6v8.3h-17.5V236
			c0-6.2-2.7-12.1-7.5-16.1l-82.7-69c-3.8-3.1-8.5-4.9-13.4-4.9h-77.4v-22H320c13,0,23.5-10.5,23.5-23.5S332.9,77,320,77h-96.2
			c-4.1,0-7.5,3.4-7.5,7.5s3.4,7.5,7.5,7.5H320c4.7,0,8.5,3.8,8.5,8.5s-3.8,8.5-8.5,8.5H168c-4.7,0-8.5-3.8-8.5-8.5s3.8-8.5,8.5-8.5
			h23.8c4.1,0,7.5-3.4,7.5-7.5s-3.4-7.5-7.5-7.5H168c-13,0-23.5,10.5-23.5,23.5S155,124,168,124h53.5v22H136
			c-4.2,0-8.3,1.3-11.8,3.6l-50.5,34.3c-5.8,3.9-9.2,10.4-9.2,17.4v47.4H47v-51.2c0-13-10.5-23.5-23.5-23.5S0,184.5,0,197.5v152
			c0,13,10.5,23.5,23.5,23.5S47,362.5,47,349.5v-55.8h17.5V340c0,8,4.4,15.2,11.6,18.8l148,74c2.9,1.4,6.1,2.2,9.4,2.2H256
			c4.1,0,7.5-3.4,7.5-7.5s-3.4-7.5-7.5-7.5h-22.5c-0.9,0-1.8-0.2-2.7-0.6l-148-74c-2-1-3.3-3.1-3.3-5.4V201.3c0-2,1-3.8,2.6-5
			l50.5-34.3c1-0.7,2.1-1,3.3-1h207.9c1.4,0,2.7,0.5,3.8,1.4l82.7,69c1.4,1.1,2.1,2.8,2.1,4.6v178c0,3.3-2.7,6-6,6H288.1
			c-4.1,0-7.5,3.4-7.5,7.5s3.4,7.5,7.5,7.5h138.5c11.6,0,21-9.4,21-21v-16.7H465v8.3c0,13,10.5,23.5,23.5,23.5s23.5-10.5,23.5-23.5
			v-85.4c0-4.1-3.4-7.5-7.5-7.5s-7.5,3.4-7.5,7.5v85.4c0,4.7-3.8,8.5-8.5,8.5s-8.5-3.8-8.5-8.5v-152c0-4.7,3.8-8.5,8.5-8.5
			s8.5,3.8,8.5,8.5v34.6C497,292.3,500.4,295.7,504.5,295.7L504.5,295.7z M32,349.5c0,4.7-3.8,8.5-8.5,8.5s-8.5-3.8-8.5-8.5v-152
			c0-4.7,3.8-8.5,8.5-8.5s8.5,3.8,8.5,8.5V349.5z M47,278.7v-15h17.5v15H47z M236.5,146v-22h15v22H236.5z M447.5,382.3V276.9H465
			v105.4H447.5L447.5,382.3z"/>
		<path class="st0" d="M214.9,357c2,1.4,4.2,2.2,6.5,2.2c2.1,0,4.2-0.6,6.1-1.9l76.2-51.4c2.7-1.8,4.4-4.6,4.8-7.8
			c0.4-3.2-0.7-6.4-2.9-8.7L284.8,267l15.4-45.2c1.5-4.5,0-9.5-3.8-12.3c-3.8-2.9-9-2.9-12.9-0.1l0,0L211.4,261
			c-2.6,1.9-4.2,4.7-4.5,7.9s0.8,6.3,3,8.6l16.5,17L210.9,345C209.5,349.5,211.1,354.2,214.9,357L214.9,357z M223.9,270.4l58-41.5
			l-12.1,35.5c-1.3,3.8-0.4,8,2.3,11l19.2,20.7l-62.8,42.4l12.8-41.9c1.2-3.8,0.2-8-2.6-10.8L223.9,270.4z"/>
	</g>
</g>
</svg>
