<?xml version="1.0" encoding="utf-8"?>
<!-- Generator: Adobe Illustrator 24.0.2, SVG Export Plug-In . SVG Version: 6.00 Build 0)  -->
<svg version="1.1" id="Warstwa_1" xmlns="http://www.w3.org/2000/svg" xmlns:xlink="http://www.w3.org/1999/xlink" x="0px" y="0px"
	 viewBox="0 0 512 512" style="enable-background:new 0 0 512 512;" xml:space="preserve">
<style type="text/css">
	.st0{fill:#FFFFFF;}
</style>
<path class="st0" d="M426,243c0-5.5-4.5-10-10-10s-10,4.5-10,10c0,33.1-26.9,60-60,60c-5.5,0-10,4.5-10,10s4.5,10,10,10
	C390.1,323,426,287.1,426,243z"/>
<path class="st0" d="M217.7,340.5c-5.3,8-51.7,78.8-51.7,108.5c0,34.1,27.5,63,60,63s60-28.9,60-63c0-29.8-46.4-100.6-51.7-108.5
	c-1.9-2.8-5-4.5-8.3-4.5S219.5,337.7,217.7,340.5z M266,449c0,22.9-18.7,43-40,43s-40-20.1-40-43c0-15.4,22-55.6,40-84.5
	C244,393.4,266,433.6,266,449z"/>
<path class="st0" d="M116,166c-3.3,0-6.4,1.6-8.2,4.3C101.4,179.5,46,260.8,46,296c0,38.6,31.4,70,70,70s70-31.4,70-70
	c0-35.2-55.4-116.5-61.8-125.7C122.4,167.6,119.3,166,116,166z M116,346c-27.6,0-50-22.4-50-50c0-19.3,28-68.4,50-102.1
	c22,33.6,50,82.7,50,102.1C166,323.6,143.6,346,116,346z"/>
<path class="st0" d="M246,233c0,5.5-4.5,10-10,10s-10-4.5-10-10s4.5-10,10-10S246,227.5,246,233z"/>
<path class="st0" d="M354.4,4.6c-1.8-2.9-5-4.6-8.4-4.6s-6.6,1.7-8.4,4.6c-2.9,4.5-70.9,111.3-99.2,186.6
	c-1.9,5.2,0.7,10.9,5.8,12.9c5.2,1.9,10.9-0.7,12.9-5.8c21.9-58,69.6-138,89-169.4C380.2,84.1,446,199.5,446,243
	c0,55.1-44.9,100-100,100c-44.6,0-84.2-30-96.3-72.9c-1.5-5.3-7-8.4-12.3-6.9c-5.3,1.5-8.4,7-6.9,12.3C244.9,327,292.4,363,346,363
	c66.2,0,120-53.8,120-120C466,187.9,383,49.2,354.4,4.6z"/>
</svg>
