<?xml version="1.0" encoding="utf-8"?>
<!-- Generator: Adobe Illustrator 24.0.2, SVG Export Plug-In . SVG Version: 6.00 Build 0)  -->
<svg version="1.1" id="Capa_1" xmlns="http://www.w3.org/2000/svg" xmlns:xlink="http://www.w3.org/1999/xlink" x="0px" y="0px"
	 viewBox="0 0 512 512" style="enable-background:new 0 0 512 512;" xml:space="preserve">
<style type="text/css">
	.st0{fill:#FFFFFF;}
</style>
<path class="st0" d="M501.1,137.5l-89.6-89.6c-13-13-33.3-14.6-48.1-3.6l-48.4,35.7c-1.8,1.3-2.9,3.3-3,5.5s0.6,4.3,2.2,5.9
	l11.7,11.7l-51.3,51.3h-36.8l-51.3-51.3L198,91.2c1.5-1.5,2.3-3.7,2.2-5.9c-0.2-2.2-1.3-4.2-3-5.5l-48.4-35.7
	c-14.8-11-35.1-9.4-48.1,3.6L86.4,62c-2.9,2.9-2.9,7.7,0,10.6s7.7,2.9,10.6,0l14.2-14.2c7.8-7.8,19.8-8.7,28.6-2.2l16.1,11.9
	L31.2,192.8l-11.9-16.1c-6.5-8.8-5.6-20.9,2.2-28.7l54.2-54.2c2.9-2.9,2.9-7.7,0-10.6c-2.9-2.9-7.7-2.9-10.6,0l-54.2,54.2
	c-13,13-14.6,33.3-3.6,48.2L43,234c1.3,1.8,3.3,2.9,5.5,3c0.2,0,0.4,0,0.6,0c2,0,3.9-0.8,5.3-2.2L66,223.2l8.7,8.7
	c-18.4,15.8-29.2,39-29.2,63.4c0,40.2,28.7,74.5,67.6,82.1c4.2,22.4,20.2,40.8,41.3,48.3v26.9c0,12.3,10,22.3,22.3,22.3
	c9.7,0,18-6.2,21-14.8h10.7c3.1,8.6,11.3,14.8,21,14.8c9.7,0,18-6.2,21-14.8h10.7c3.1,8.6,11.3,14.8,21,14.8c9.7,0,17.9-6.2,21-14.8
	h10.7c3.1,8.6,11.3,14.8,21,14.8c12.3,0,22.3-10,22.3-22.3v-58.9c11.8-1.6,22.3-7,30.5-14.9c15-0.9,29.4-5.9,41.8-14.4
	c3.4-2.3,4.3-7,2-10.4c-2.3-3.4-7-4.3-10.4-2c-6.6,4.5-13.9,7.8-21.5,9.7c2.4-5.4,4-11.3,4.5-17.4c19.4-8.5,32-27.6,32-49.1
	c0-16.6-7.6-32.1-20.4-42.1l10.7-10.7c15.6,13,24.8,32.3,24.8,52.8c0,13.4-3.9,26.4-11.2,37.6c-2.3,3.5-1.3,8.1,2.2,10.4
	c1.3,0.8,2.7,1.2,4.1,1.2c2.4,0,4.8-1.2,6.3-3.4c8.9-13.6,13.7-29.5,13.7-45.8c0-24.5-10.8-47.6-29.2-63.4l8.7-8.7l11.7,11.7
	c1.4,1.4,3.3,2.2,5.3,2.2c0.2,0,0.4,0,0.6,0c2.2-0.2,4.2-1.3,5.5-3l35.7-48.4C515.7,170.8,514.1,150.5,501.1,137.5L501.1,137.5z
	 M380.2,206.7c0-1.9,0.7-3.7,2.1-5l21.1-21.1l10,10l-21.1,21.1c-1.3,1.3-3.1,2.1-5,2.1c-1.9,0-3.7-0.7-5-2.1
	C380.9,210.4,380.2,208.6,380.2,206.7L380.2,206.7z M361.6,138.9l6.7,6.7l-21.1,21.1c-1.3,1.3-3.1,2.1-5,2.1c-1.9,0-3.7-0.7-5-2.1
	c-2.7-2.7-2.7-7.2,0-10l21.1-21.1L361.6,138.9z M336.3,113.5l11.4,11.4l-21.1,21.1c-8.6,8.6-8.6,22.6,0,31.2
	c4.2,4.2,9.7,6.5,15.6,6.5c5.9,0,11.4-2.3,15.6-6.5l21.1-21.1l13.9,13.9l-21.1,21.1c-4.2,4.2-6.5,9.7-6.5,15.6s2.3,11.4,6.5,15.6
	c4.2,4.2,9.7,6.5,15.6,6.5c5.9,0,11.4-2.3,15.6-6.5l21.1-21.1l11.4,11.4l-48.2,48.2l-99.1-99.1L336.3,113.5z M304.7,394.3h8.1v50.9
	h-8.1V394.3z M253.3,379.3l42.3-41.5c0,0.6,0,1.3,0,1.9c0,15.6,6.6,29.6,17.1,39.6L253.3,379.3z M199.1,425.2
	c2.8-1.1,5.5-2.4,8.1-3.9v23.9h-8.1V425.2z M251.9,394.3h8.1v50.9h-8.1V394.3z M239.6,371.7c0.2-2,0.3-4,0.3-6.1
	c0-35.3-28.7-63.9-63.9-63.9c-1.4,0-2.7,0.1-4.1,0.1l41.8-40.9c1.6,22,19.9,39.4,42.3,39.4c23.4,0,42.4-19,42.4-42.4c0-1,0-2-0.1-3
	l43,31c-11.5,1.9-21.9,7.4-29.8,15.3l0,0L239.6,371.7z M106.7,263.9l11.5,11.5l14.1,43.6c-4.4,4.1-8.2,8.9-11.3,14.1
	c-17.4-3.9-30.4-19.6-30.4-37.8C90.6,282.8,96.6,271.2,106.7,263.9z M256,230.5c15.1,0,27.4,12.3,27.4,27.4
	c0,15.1-12.3,27.4-27.4,27.4s-27.4-12.3-27.4-27.4C228.6,242.8,240.9,230.5,256,230.5L256,230.5z M373.2,290.4
	c0,0-90.6-65.6-91.7-66.4c-7.1-5.3-15.9-8.5-25.5-8.5c-11,0-21.1,4.2-28.7,11.2l-83,81.1l-11.1-34.3l104.3-104.3h36.8l104.3,104.3
	L373.2,290.4C373.2,290.4,373.2,290.4,373.2,290.4L373.2,290.4z M108.6,180.6l21.1,21.1c1.3,1.3,2.1,3.1,2.1,5s-0.7,3.7-2.1,5
	c-1.3,1.3-3.1,2.1-5,2.1c-1.9,0-3.7-0.7-5-2.1l-21.1-21.1L108.6,180.6z M49.9,218.1L40.2,205L168.1,77.1l13.1,9.7L49.9,218.1z
	 M88,201.2l21.1,21.1c4.2,4.2,9.7,6.5,15.6,6.5s11.4-2.3,15.6-6.5c4.2-4.2,6.5-9.7,6.5-15.6s-2.3-11.4-6.5-15.6L119.2,170l0.2-0.2
	l13.7-13.7l21.1,21.1c4.2,4.2,9.7,6.5,15.6,6.5s11.4-2.3,15.6-6.5c8.6-8.6,8.6-22.6,0-31.2L164.3,125l11.4-11.4l48.2,48.2
	l-99.1,99.1l-48.2-48.2L88,201.2z M153.7,135.6l21.1,21.1c2.7,2.7,2.7,7.2,0,10c-1.3,1.3-3.1,2.1-5,2.1s-3.7-0.7-5-2.1l-21.1-21.1
	L153.7,135.6z M60.5,295.4c0-20.5,9.2-39.8,24.8-52.8L96,253.2c-12.8,10.1-20.4,25.5-20.4,42.1c0,13.5,5,26.3,14.1,36.3
	c6.8,7.5,15.5,12.8,25.1,15.4c-1.4,4.7-2.3,9.7-2.6,14.8C82.2,354.2,60.5,327,60.5,295.4z M127,365.6c0-27,22-48.9,48.9-48.9
	s48.9,22,48.9,48.9s-22,48.9-48.9,48.9S127,392.6,127,365.6z M176.8,460.1c-4,0-7.3-3.3-7.3-7.3v-23.5c2.1,0.2,4.3,0.3,6.5,0.3
	c2.8,0,5.5-0.2,8.1-0.5v23.7C184.1,456.8,180.8,460.1,176.8,460.1z M229.6,460.1c-4,0-7.3-3.3-7.3-7.3v-43l14.7-14.4v57.4
	C236.9,456.8,233.6,460.1,229.6,460.1L229.6,460.1z M282.4,460.1c-4,0-7.3-3.3-7.3-7.3v-58.4h14.7v58.4
	C289.7,456.8,286.4,460.1,282.4,460.1z M335.2,460.1c-4,0-7.3-3.3-7.3-7.3v-58.4h14.7v58.4C342.5,456.8,339.3,460.1,335.2,460.1z
	 M350,379.3c-21.8,0-39.6-17.7-39.6-39.6c0-21.8,17.7-39.6,39.6-39.6c21.8,0,39.6,17.7,39.6,39.6C389.6,361.6,371.9,379.3,350,379.3
	z M421.4,295.4c0,13.6-7,25.8-18.1,32.8c-2.5-11.5-8.6-21.6-17.1-29.1l7.6-23.6l11.5-11.5C415.4,271.2,421.4,282.8,421.4,295.4
	L421.4,295.4z M462.1,218.1L330.8,86.8l13.1-9.7L471.8,205L462.1,218.1z M492.6,176.7l-11.9,16.1L356.1,68.1l16.1-11.9
	c8.8-6.5,20.9-5.6,28.6,2.2l89.6,89.6C498.2,155.8,499.2,167.9,492.6,176.7L492.6,176.7z"/>
<path class="st0" d="M198.6,365.6c0-12.5-10.2-22.6-22.6-22.6c-12.5,0-22.6,10.2-22.6,22.6s10.2,22.6,22.6,22.6
	C188.5,388.3,198.6,378.1,198.6,365.6z M168.4,365.6c0-4.2,3.4-7.6,7.6-7.6s7.6,3.4,7.6,7.6s-3.4,7.6-7.6,7.6
	S168.4,369.8,168.4,365.6z"/>
<path class="st0" d="M350,317.1c-12.5,0-22.6,10.2-22.6,22.6c0,12.5,10.2,22.6,22.6,22.6s22.6-10.2,22.6-22.6
	C372.7,327.3,362.5,317.1,350,317.1z M350,347.4c-4.2,0-7.6-3.4-7.6-7.6s3.4-7.6,7.6-7.6s7.6,3.4,7.6,7.6S354.3,347.4,350,347.4z"/>
</svg>
