<?xml version="1.0" encoding="utf-8"?>
<!-- Generator: Adobe Illustrator 24.0.2, SVG Export Plug-In . SVG Version: 6.00 Build 0)  -->
<svg version="1.1" id="Warstwa_1" xmlns="http://www.w3.org/2000/svg" xmlns:xlink="http://www.w3.org/1999/xlink" x="0px" y="0px"
	 viewBox="0 0 512 512" style="enable-background:new 0 0 512 512;" xml:space="preserve">
<style type="text/css">
	.st0{fill:#FFFFFF;}
</style>
<g id="Out_line">
	<path class="st0" d="M17,431.6l-2,15.9c3,0.4,6,0.6,9,0.6c14.8,0,29.1-4.5,41.2-13c0,0,0.1-0.1,0.1-0.1l1.9-1.4
		c0,0,0.1-0.1,0.1-0.1c4.3-3.3,8.2-7,11.7-11.1C90,409.4,96,393,96,376c0-1.8-0.1-3.5-0.2-5.1c-0.4-5.3-1.3-10.5-2.9-15.6
		c0-0.1,0-0.1-0.1-0.2l-0.9-2.9c0-0.1,0-0.1-0.1-0.2c-8.1-22.8-27.1-40.1-50.6-45.9c-8.6-2.1-17.5-2.6-26.3-1.5l2,15.9
		c4.1-0.5,8.3-0.6,12.5-0.2c-2.8,13.1-3.1,26.6-0.8,39.8c0.7,4.2,4.7,7.1,9,6.5c13.3-1.9,26.1-6.3,37.6-13c0.5,1.2,1,2.4,1.5,3.7
		l0.9,2.7c0.4,1.3,0.7,2.7,1,4c-13.3,1.4-26.3,5.3-38.1,11.6c-3.8,2-5.3,6.7-3.4,10.6c5.9,12,14,22.8,24,31.8
		c-1.1,1-2.2,1.9-3.3,2.8L56,422c-1.2,0.8-2.4,1.6-3.7,2.3c-5.4-12.3-13.2-23.4-22.8-32.7l-11.1,11.5c8,7.8,14.5,17,19.1,27.2
		c-4.4,1.1-9,1.6-13.5,1.6C21.7,432,19.3,431.9,17,431.6z M45,324.1c8.5,3.4,16,8.9,21.9,15.9c-7.3,4.2-15.2,7.4-23.5,9.3
		C42.7,340.8,43.3,332.4,45,324.1z M55.4,386.2c7.8-3.3,16-5.4,24.4-6.3c-0.6,9.1-3.5,17.9-8.3,25.7C65.2,400,59.8,393.4,55.4,386.2
		z"/>
	<path class="st0" d="M272,408c4.4,0,8-3.6,8-8v-48c0-4.1-3.1-7.6-7.3-8c15.2-21.4,23.3-47,23.3-73.2V166.1
		c0-29.9-24.2-54-54.1-54.1c-9.5,0-18.7-3.5-25.7-10l-90.8-84.4l-10.9,11.7l88.9,82.7H16v16h225.9c18.7,0,34.6,13.6,37.6,32H192
		c-4.4,0-8,3.6-8,8c0,0.6,0.1,1.2,0.2,1.7c10.2,46.2,48.8,80.6,95.8,85.5v15.6c0,0.4,0,0.8,0,1.1H134.7C106.1,241.4,66,224,24,224
		h-8v16h8c75,0,136,61,136,136c0,5.1-0.3,10.2-0.9,15.2c-5,0.5-10.1,0.8-15.1,0.8h-1.1c0.7-5.3,1.1-10.6,1.1-16
		c-0.1-66.2-53.8-119.9-120-120c-4.4,0-8,3.6-8,8v24h16v-15.7c6.7,0.5,13.4,1.7,19.9,3.5l-5.4,14.8l15,5.5l5.4-14.7
		c6.2,2.8,12,6.2,17.5,10.2l-10.1,12l12.3,10.3l10.1-12c4.8,4.7,9.2,9.9,13,15.5l-13.6,7.8l8,13.9l13.6-7.8c2.9,6.1,5.3,12.5,6.9,19
		l-15.5,2.7l2.8,15.8l15.5-2.7c0.3,3.3,0.5,6.7,0.5,10.1c0,3.4-0.2,6.8-0.5,10.1l-15.5-2.7l-2.8,15.8l15.5,2.7
		c-1.7,6.6-4,12.9-6.9,19l-13.6-7.8l-8,13.9l13.6,7.8c-3.8,5.6-8.2,10.8-13,15.5l-10.1-12l-12.3,10.3l10.1,12
		c-5.5,3.9-11.4,7.3-17.5,10.2L61.6,456l-15,5.5l5.4,14.8c-6.5,1.8-13.2,3-19.9,3.5V464H16v24c0,4.4,3.6,8,8,8
		c53.9-0.1,101.2-36,115.7-88h1l21.7,21.7c1.5,1.5,3.5,2.3,5.7,2.3h72c4.4,0,8-3.6,8-8v-16H272z M264,360v32h-16v-16
		c0-1.6-0.5-3.2-1.4-4.5c4.3-3.5,8.4-7.2,12.3-11.1c0.1-0.1,0.3-0.3,0.4-0.4H264z M280,176v16h-70.4c-2.9-5.1-5.3-10.5-7.1-16H280z
		 M221,208h59v31.1C257.2,236.3,236.2,225.3,221,208z M147.9,288h130.8c-3.6,23.2-14.5,44.6-31.1,61.1
		c-19.7,19.8-44.8,33.6-72.1,39.5c0.3-4.2,0.5-8.4,0.5-12.6C176,344.4,166.2,313.7,147.9,288z M232,416h-60.7l-9-9
		c23.7-2.6,46.5-10.5,66.8-23h2.9V416z"/>
	<path class="st0" d="M296,360h16c4.4,0,8-3.6,8-8c0-13.2,10.8-24,24-24c4.4,0,8-3.6,8-8v-8c0-35.3,28.7-64,64-64v-16
		c-44.2,0-80,35.8-80,80v0.8c-15.7,3.2-28,15.5-31.2,31.2H296V360z"/>
	<path class="st0" d="M480,280v16c0,22.1-17.9,40-40,40c-4.4,0-8,3.6-8,8c0,26.5-21.5,48-48,48v16c32.4,0,59.7-24.3,63.6-56.5
		C475.3,347.7,496,324,496,296v-16H480z"/>
	<path class="st0" d="M312,448c-8.8,0-16-7.2-16-16c0-4.4-3.6-8-8-8h-24v16h17c4.4,17.1,21.9,27.4,39,23c14.1-3.6,24-16.4,24-31h-16
		C328,440.8,320.8,448,312,448z"/>
	<path class="st0" d="M336,392v16c22.1,0,40-17.9,40-40h-16C360,381.2,349.2,392,336,392z"/>
	<path class="st0" d="M416,280v-16c-26.5,0-48,21.5-48,48h16C384,294.3,398.3,280,416,280z"/>
	<path class="st0" d="M368,448h-8v16h8c22.1,0,40-17.9,40-40h-16C392,437.2,381.2,448,368,448z"/>
	<path class="st0" d="M424,416v16c35.3,0,64-28.7,64-64h-16C472,394.5,450.5,416,424,416z"/>
	<rect x="432" y="264" class="st0" width="16" height="16"/>
	<rect x="360" y="336" class="st0" width="16" height="16"/>
	<rect x="416" y="304" class="st0" width="16" height="16"/>
</g>
</svg>
