<?xml version="1.0" encoding="utf-8"?>
<!-- Generator: Adobe Illustrator 24.0.2, SVG Export Plug-In . SVG Version: 6.00 Build 0)  -->
<svg version="1.1" id="Capa_1" xmlns="http://www.w3.org/2000/svg" xmlns:xlink="http://www.w3.org/1999/xlink" x="0px" y="0px"
	 viewBox="0 0 390.4 390.4" style="enable-background:new 0 0 390.4 390.4;" xml:space="preserve">
<style type="text/css">
	.st0{fill:#BDC3C7;}
</style>
<g>
	<g>
		<path class="st0" d="M194.8,127.6c-37.2,0-67.6,30.4-67.6,67.6s30.4,67.6,67.6,67.6s67.6-30.4,67.6-67.6S232,127.6,194.8,127.6z
			 M194.8,244.8c-27.6,0-49.6-22.4-49.6-49.6c0-27.6,22.4-49.6,49.6-49.6c27.6,0,49.6,22.4,49.6,49.6
			C244.4,222.8,222.4,244.8,194.8,244.8z"/>
	</g>
</g>
<g>
	<g>
		<path class="st0" d="M371.6,152.8H340c-1.2,0-2.8-1.2-3.2-2.8l-7.6-19.6c-0.4-1.2,0-3.6,0.8-4.4l22.8-22.8
			c6.8-6.8,6.8-18.4,0-25.2l-38-38c-6.8-6.8-18.4-6.8-25.2,0l-22.4,22.4c-0.4,0.4-2,1.6-4.4,0.4l-19.2-8.4c-1.2-0.4-2.4-2.4-2.4-3.6
			V18.4c0-10-8-18-18-18H170c-10,0-18,8-18,18V50c0,1.2-1.2,2.8-2.8,3.2l-19.6,7.6c-0.8,0.4-3.6,0-4.4-0.8l-22.4-22.8
			c-6.8-6.8-18.4-6.8-25.2,0l-38,38c-6.8,6.8-6.8,18.4,0,25.2L62,122.8c0.8,0.8,1.2,2.8,0.4,4.4L54,146.4c-0.4,1.2-2.4,2.4-3.6,2.4
			H18c-10,0-18,8-18,18v53.6c0,10,8,18,18,18h31.6c1.2,0,2.8,1.2,3.2,2.8l7.6,19.6c0.4,1.2,0,3.6-0.8,4.4l-22.8,22
			c-6.8,6.8-6.8,18.4,0,25.2l38,38c6.8,6.8,18.4,6.8,25.2,0l22.4-22.4c0.4-0.4,2-1.6,4.4-0.4L146,336c1.2,0.4,2.4,2.4,2.4,3.6V372
			c0,10,8,18,18,18H220c10,0,18-8,18-18v-31.6c0-1.2,1.2-2.8,2.8-3.2l19.6-7.6c0.8-0.4,3.6,0,4.4,0.8l22.8,22.8
			c6.8,6.8,18.4,6.8,25.2,0l38-38c6.8-6.8,6.8-18.4,0-25.2l-22.4-22.4c-0.8-0.8-1.2-2.8-0.4-4.4l8.4-19.2c0.4-1.2,2.4-2.4,3.6-2.4
			h32.4c10,0,18-8,18-18v-53.2C389.6,160.8,381.6,152.8,371.6,152.8z M339.2,224c-8.8,0-17.2,6-20,13.6l-7.6,18
			c-4,8-2.4,18.4,4,24.4l22.4,22.4l-38,38l-22.8-22.8c-4-4-9.6-6-15.6-6c-3.2,0-6.4,0.8-8.4,1.6l-18.4,7.2
			c-8.4,2.8-14.8,11.2-14.8,20V372h-53.6v-32.4c0-8.8-6-17.2-13.6-20l-18-7.6c-2.8-1.6-6-2.4-9.6-2.4c-6,0-11.2,2-15.2,6L87.6,338
			l-38-38l22.8-22.8c6-6,8-16.8,4.4-24l-7.2-18.4c-2.8-8.4-11.2-14.8-20-14.8H18v-53.6h32.4c8.8,0,17.2-6,20-13.6l7.6-18
			c4-8,2.4-18.4-4-24.8L51.6,87.6l38-38l22.8,22.8c4,4,9.6,6,15.6,6c3.2,0,6.4-0.8,8.4-1.6l18.4-7.2c8.4-2.8,14.8-11.2,14.8-20V18
			h53.6v32.4c0,8.8,6,17.2,13.6,20l18,8c7.6,4,18.4,2.4,24.4-4L301.6,52l38,38l-22.8,22.8c-6,6-8,16.8-4.4,24l7.2,18.4
			c2.8,8.4,11.2,14.8,20,14.8h31.6v54H339.2z"/>
	</g>
</g>
</svg>
