<?xml version="1.0" encoding="utf-8"?>
<!-- Generator: Adobe Illustrator 24.0.2, SVG Export Plug-In . SVG Version: 6.00 Build 0)  -->
<svg version="1.1" id="Warstwa_1" xmlns="http://www.w3.org/2000/svg" xmlns:xlink="http://www.w3.org/1999/xlink" x="0px" y="0px"
	 viewBox="0 0 512 512" style="enable-background:new 0 0 512 512;" xml:space="preserve">
<style type="text/css">
	.st0{fill-rule:evenodd;clip-rule:evenodd;fill:#FFFFFF;}
</style>
<g>
	<path class="st0" d="M403.6,266c-0.1-0.1-0.1-0.3-0.2-0.4L264.4,5.3C262.6,2,259.2,0,255.5,0c-3.7,0-7.1,2-8.8,5.3L178,134
		c-2.6,4.9-0.8,10.9,4.1,13.5c4.9,2.6,10.9,0.8,13.5-4.1l59.9-112.2l130,243.4c0.1,0.1,0.1,0.3,0.2,0.4
		c11.3,21.2,17.3,45.2,17.3,69.4c0,81.4-66.2,147.5-147.5,147.5C174.2,492,108,425.8,108,344.5c0-24.2,6-48.2,17.3-69.4
		c0.1-0.1,0.1-0.3,0.2-0.4l32.4-60.7c2.6-4.9,0.8-10.9-4.1-13.5s-10.9-0.8-13.5,4.1l-32.6,61.1c-0.1,0.1-0.1,0.3-0.2,0.4
		C94.7,290,88,317.1,88,344.5C88,436.8,163.2,512,255.5,512s167.5-75.2,167.5-167.5C423.1,317.1,416.4,290,403.6,266z"/>
	<path class="st0" d="M301.4,262.9c-4.8-2.8-10.9-1.1-13.7,3.7L206.1,408c-2.8,4.8-1.1,10.9,3.7,13.7c1.6,0.9,3.3,1.3,5,1.3
		c3.5,0,6.8-1.8,8.7-5L305,276.6C307.8,271.8,306.2,265.7,301.4,262.9z"/>
	<path class="st0" d="M202.1,250.2c-22.5,0-40.8,18.3-40.8,40.8c0,22.5,18.3,40.8,40.8,40.8s40.8-18.3,40.8-40.8
		C242.9,268.5,224.6,250.2,202.1,250.2z M202.1,311.9c-11.5,0-20.8-9.3-20.8-20.8c0-11.5,9.3-20.8,20.8-20.8s20.8,9.3,20.8,20.8
		C222.9,302.5,213.6,311.9,202.1,311.9z"/>
	<path class="st0" d="M268.1,393.5c0,22.5,18.3,40.8,40.8,40.8s40.8-18.3,40.8-40.8c0-22.5-18.3-40.8-40.8-40.8
		S268.1,371,268.1,393.5z M309,372.7c11.5,0,20.8,9.3,20.8,20.8c0,11.5-9.3,20.8-20.8,20.8s-20.8-9.3-20.8-20.8
		C288.1,382.1,297.5,372.7,309,372.7z"/>
	<path class="st0" d="M168,184c5.5,0,10-4.5,10-10s-4.5-10-10-10s-10,4.5-10,10S162.5,184,168,184z"/>
</g>
</svg>
