<svg id="Warstwa_1" data-name="Warstwa 1" xmlns="http://www.w3.org/2000/svg" xmlns:xlink="http://www.w3.org/1999/xlink" viewBox="0 0 220.96 384"><defs><style>.cls-1{fill:none;}.cls-2{clip-path:url(#clip-path);}.cls-3{fill:#fff;}</style><clipPath id="clip-path" transform="translate(-309.52 -106.28)"><rect class="cls-1" x="309" y="106.28" width="222" height="384"/></clipPath></defs><title>thermometer</title><g class="cls-2"><path class="cls-3" d="M453.5,317.91V156.65a50.38,50.38,0,0,0-100.75,0V317.84a93.53,93.53,0,0,0,50.13,172.37l.5.07A93.53,93.53,0,0,0,453.5,317.91ZM363.78,465.38a79.27,79.27,0,0,1,0-137.3,7.16,7.16,0,0,0,3.58-6.23V156.65a36.06,36.06,0,0,1,72.11,0v165.2a7.14,7.14,0,0,0,3.58,6.23,79.27,79.27,0,0,1-79.27,137.3Zm0,0" transform="translate(-309.52 -106.28)"/></g><path class="cls-3" d="M410.54,345.27V236.64a7.16,7.16,0,0,0-14.32,0V345.27a49.62,49.62,0,1,0,14.32,0Zm-7.16,84.07a35.16,35.16,0,1,1,35.16-35.16,35.16,35.16,0,0,1-35.16,35.16Zm0,0" transform="translate(-309.52 -106.28)"/><path class="cls-3" d="M523.32,155.51H478.57a7.16,7.16,0,1,0,0,14.32h44.75a7.16,7.16,0,0,0,0-14.32Zm0,0" transform="translate(-309.52 -106.28)"/><path class="cls-3" d="M513.8,191.31H487.52a7.16,7.16,0,1,0,0,14.32H513.8a7.16,7.16,0,1,0,0-14.32Zm0,0" transform="translate(-309.52 -106.28)"/><path class="cls-3" d="M523.32,227.12H478.57a7.16,7.16,0,1,0,0,14.32h44.75a7.16,7.16,0,0,0,0-14.32Zm0,0" transform="translate(-309.52 -106.28)"/><path class="cls-3" d="M513.8,262.92H487.52a7.16,7.16,0,1,0,0,14.32H513.8a7.16,7.16,0,1,0,0-14.32Zm0,0" transform="translate(-309.52 -106.28)"/><path class="cls-3" d="M523.32,298.72H478.57a7.17,7.17,0,0,0,0,14.33h44.75a7.17,7.17,0,0,0,0-14.33Zm0,0" transform="translate(-309.52 -106.28)"/></svg>