<?xml version="1.0" encoding="utf-8"?>
<!-- Generator: Adobe Illustrator 24.0.2, SVG Export Plug-In . SVG Version: 6.00 Build 0)  -->
<svg version="1.1" id="Capa_1" xmlns="http://www.w3.org/2000/svg" xmlns:xlink="http://www.w3.org/1999/xlink" x="0px" y="0px"
	 viewBox="0 0 512 512" style="enable-background:new 0 0 512 512;" xml:space="preserve">
<style type="text/css">
	.st0{fill:#FFFFFF;}
</style>
<g>
	<g>
		<path class="st0" d="M480.6,206.7h-7.9v-21.4c0-24.6-20-44.7-44.7-44.7h-11.1c-4.7-17.5-20.8-30.5-39.8-30.5
			c-22.7,0-41.2,18.5-41.2,41.2v68.2H176.1v-68.2c0-22.7-18.5-41.2-41.2-41.2c-19,0-35.1,13-39.8,30.5H84c-24.6,0-44.7,20-44.7,44.7
			v21.4h-7.9C14.1,206.7,0,220.8,0,238.1v35.6c0,17.3,14.1,31.4,31.4,31.4h7.9v21.5c0,24.6,20,44.7,44.7,44.7h11.1
			c4.7,17.5,20.8,30.5,39.8,30.5c22.7,0,41.2-18.5,41.2-41.2v-68.2h137c4.1,0,7.5-3.4,7.5-7.5s-3.4-7.5-7.5-7.5h-137v-42.8h159.8
			v126c0,22.7,18.5,41.2,41.2,41.2c19,0,35.1-13,39.8-30.5H428c24.6,0,44.7-20,44.7-44.7v-21.5h7.9c17.3,0,31.4-14.1,31.4-31.4
			v-35.6C512,220.8,497.9,206.7,480.6,206.7z M39.3,290.2h-7.9l0,0c-9.1,0-16.4-7.4-16.4-16.4v-35.6c0-9.1,7.4-16.4,16.4-16.4h7.9
			V290.2z M161.1,360.6c0,14.5-11.8,26.2-26.2,26.2c-14.5,0-26.2-11.8-26.2-26.2V209.3c0-4.1-3.4-7.5-7.5-7.5s-7.5,3.4-7.5,7.5v147
			H84c-16.4,0-29.7-13.3-29.7-29.7V185.3c0-16.4,13.3-29.7,29.7-29.7h9.7V176c0,4.1,3.4,7.5,7.5,7.5s7.5-3.4,7.5-7.5v-24.7
			c0-14.5,11.8-26.2,26.2-26.2c14.5,0,26.2,11.8,26.2,26.2L161.1,360.6L161.1,360.6z M403.3,360.6c0,14.5-11.8,26.2-26.2,26.2
			s-26.2-11.8-26.2-26.2V151.4c0-14.5,11.8-26.2,26.2-26.2s26.2,11.8,26.2,26.2V360.6z M457.7,326.7c0,16.4-13.3,29.7-29.7,29.7
			h-9.7V155.7h9.7c16.4,0,29.7,13.3,29.7,29.7V326.7z M497,273.7c0,9.1-7.4,16.4-16.4,16.4h-7.9v-68.5h7.9c9.1,0,16.4,7.4,16.4,16.4
			V273.7z"/>
	</g>
</g>
</svg>
